<?xml version="1.0" ?><svg height="32" id="icon" viewBox="0 0 32 32" width="32" xmlns="http://www.w3.org/2000/svg"><defs><style>
      .cls-1 {
        fill: none;
      }
    </style></defs><circle cx="22" cy="24" r="2"/><path d="M29.7769,23.4785A8.64,8.64,0,0,0,22,18a8.64,8.64,0,0,0-7.7769,5.4785L14,24l.2231.5215A8.64,8.64,0,0,0,22,30a8.64,8.64,0,0,0,7.7769-5.4785L30,24ZM22,28a4,4,0,1,1,4-4A4.0045,4.0045,0,0,1,22,28Z"/><rect height="2" width="5" x="7" y="17"/><rect height="2" width="12" x="7" y="12"/><rect height="2" width="12" x="7" y="7"/><path d="M22,2,4,2A2.0058,2.0058,0,0,0,2,4V28a2.0058,2.0058,0,0,0,2,2h8V28H4V4H22V15h2V4A2.0058,2.0058,0,0,0,22,2Z"/><rect class="cls-1" data-name="&lt;Transparent Rectangle&gt;" height="32" id="_Transparent_Rectangle_" width="32"/></svg>